<svg width="93" height="11" viewBox="0 0 93 11" fill="none" xmlns="http://www.w3.org/2000/svg">
<g clip-path="url(#clip0_1_1547)">
<path d="M0.5 0.958012H2.893L5.42 7.25501H5.528L8.055 0.958012H10.441V10.331H8.566V4.23201H8.488L6.114 10.286H4.832L2.458 4.20901H2.382V10.331H0.5V0.958012ZM13.779 10.463C13.374 10.472 12.972 10.392 12.6 10.228C12.269 10.08 11.987 9.83701 11.789 9.52901C11.58 9.18101 11.477 8.77701 11.491 8.36901C11.481 8.02801 11.553 7.69001 11.702 7.38401C11.837 7.12501 12.035 6.90501 12.276 6.74401C12.53 6.57601 12.809 6.45201 13.102 6.37801C13.422 6.29301 13.748 6.23601 14.078 6.20601C14.477 6.16301 14.8 6.12101 15.045 6.08301C15.232 6.06501 15.413 6.00601 15.577 5.91101C15.69 5.83601 15.754 5.70401 15.746 5.56701V5.54001C15.76 5.28601 15.663 5.03901 15.479 4.86701C15.264 4.69601 14.995 4.61101 14.723 4.62901C14.433 4.61401 14.146 4.69501 13.904 4.86001C13.71 5.00101 13.567 5.20501 13.5 5.43801L11.735 5.29201C11.817 4.88201 11.999 4.50001 12.265 4.18201C12.538 3.85901 12.885 3.61101 13.276 3.45901C13.739 3.28201 14.23 3.19601 14.725 3.20601C15.099 3.20601 15.471 3.25401 15.833 3.34901C16.168 3.43301 16.484 3.57701 16.768 3.77601C17.04 3.96401 17.263 4.21801 17.417 4.51401C17.583 4.84601 17.665 5.21401 17.656 5.58601V10.331H15.845V9.35701H15.791C15.681 9.57701 15.531 9.77301 15.348 9.93501C15.15 10.108 14.921 10.241 14.674 10.324C14.386 10.421 14.083 10.468 13.779 10.463ZM14.327 9.11901C14.585 9.12401 14.84 9.06501 15.07 8.94701C15.276 8.84101 15.451 8.68101 15.576 8.48201C15.699 8.28601 15.763 8.05701 15.761 7.82301V7.07301C15.684 7.12001 15.602 7.15601 15.517 7.18101C15.414 7.21201 15.298 7.24201 15.169 7.26701C15.041 7.29301 14.912 7.31601 14.784 7.33601L14.435 7.39001C14.233 7.41601 14.035 7.47001 13.847 7.55001C13.694 7.61101 13.56 7.71301 13.458 7.84401C13.362 7.97701 13.314 8.13901 13.319 8.30301C13.306 8.54201 13.413 8.77101 13.602 8.91101C13.817 9.05601 14.07 9.12901 14.327 9.11901ZM21.486 10.446C20.984 10.453 20.491 10.308 20.068 10.031C19.622 9.73301 19.271 9.30801 19.057 8.80901C18.797 8.18301 18.675 7.50501 18.698 6.82501C18.675 6.13401 18.805 5.44701 19.079 4.81501C19.295 4.32201 19.646 3.90401 20.09 3.61001C20.507 3.34501 20.99 3.20701 21.481 3.21101C21.814 3.19901 22.145 3.26701 22.447 3.40901C22.689 3.52601 22.905 3.69501 23.079 3.90301C23.225 4.07901 23.348 4.27401 23.444 4.48301H23.503V0.958012H25.407V10.331H23.52V9.20001H23.439C23.34 9.41001 23.213 9.60601 23.062 9.78001C22.885 9.98001 22.67 10.141 22.43 10.253C22.133 10.388 21.811 10.454 21.486 10.446ZM22.091 8.89701C22.373 8.90601 22.649 8.81401 22.873 8.63901C23.099 8.44801 23.269 8.19701 23.365 7.91501C23.485 7.56301 23.542 7.19201 23.534 6.82001C23.543 6.44901 23.485 6.08001 23.365 5.73101C23.271 5.45001 23.1 5.20201 22.873 5.01601C22.647 4.84501 22.371 4.75701 22.09 4.76501C21.803 4.75501 21.523 4.84801 21.296 5.02701C21.07 5.21601 20.901 5.46701 20.807 5.75001C20.691 6.09401 20.634 6.45601 20.639 6.82001C20.632 7.18801 20.689 7.55501 20.807 7.90301C20.9 8.18801 21.069 8.44201 21.294 8.63601C21.522 8.81401 21.804 8.90501 22.091 8.89401V8.89701ZM29.913 10.469C29.277 10.487 28.648 10.334 28.088 10.026C27.582 9.73801 27.171 9.30201 26.909 8.77301C26.621 8.17601 26.479 7.51501 26.496 6.84901C26.481 6.19001 26.623 5.53601 26.909 4.94401C27.169 4.41401 27.573 3.97101 28.071 3.66701C28.607 3.35301 29.217 3.19501 29.834 3.21101C30.267 3.20801 30.697 3.28201 31.104 3.43101C31.49 3.57601 31.842 3.80301 32.136 4.09701C32.441 4.41401 32.676 4.79401 32.823 5.21301C32.996 5.71601 33.079 6.24701 33.069 6.78001V7.31601H27.261V6.10201H31.276C31.281 5.84201 31.219 5.58401 31.096 5.35501C30.98 5.14101 30.81 4.96201 30.602 4.83901C30.378 4.71201 30.125 4.64801 29.869 4.65301C29.6 4.64801 29.334 4.71901 29.101 4.85801C28.883 4.98901 28.702 5.17701 28.579 5.40201C28.452 5.63301 28.385 5.89401 28.385 6.15901V7.30901C28.377 7.62001 28.442 7.92901 28.575 8.20901C28.695 8.45401 28.883 8.65801 29.116 8.79601C29.37 8.93801 29.656 9.00901 29.945 9.00001C30.143 9.00301 30.34 8.97201 30.528 8.90901C30.697 8.85301 30.851 8.76001 30.98 8.63601C31.107 8.51001 31.205 8.35701 31.266 8.18601L33.032 8.30501C32.949 8.72501 32.761 9.11601 32.484 9.43801C32.192 9.77201 31.826 10.03 31.416 10.19C30.937 10.38 30.427 10.474 29.913 10.469ZM37.824 2.39501C37.553 2.40101 37.291 2.29601 37.096 2.10401C36.904 1.92901 36.795 1.67901 36.795 1.41601C36.795 1.15301 36.904 0.903012 37.096 0.728012C37.507 0.340012 38.141 0.340012 38.552 0.728012C38.745 0.902012 38.855 1.15301 38.855 1.41601C38.858 1.68201 38.747 1.93701 38.552 2.11301C38.356 2.30301 38.094 2.40401 37.824 2.39501ZM36.865 10.331V3.30201H38.774V10.331H36.865ZM42.016 6.27401V10.331H40.109V3.30201H41.927V4.54101H42.008C42.155 4.14201 42.423 3.80101 42.775 3.56901C43.165 3.32101 43.619 3.19701 44.079 3.21101C44.516 3.20001 44.948 3.31101 45.329 3.53101C45.686 3.74701 45.974 4.06401 46.158 4.44301C46.364 4.88301 46.465 5.36701 46.453 5.85501V10.329H44.545V6.19901C44.568 5.83201 44.452 5.47001 44.222 5.18901C43.987 4.93901 43.658 4.80701 43.32 4.82501C43.085 4.82201 42.853 4.88201 42.646 4.99701C42.449 5.11101 42.29 5.28301 42.188 5.49001C42.072 5.73401 42.013 6.00301 42.016 6.27401ZM50.544 10.331V0.958012H56.61V2.59201H52.478V4.82901H56.211V6.46201H52.478V10.334L50.544 10.331ZM57.577 10.331V3.30201H59.431V4.52801H59.501C59.599 4.13601 59.821 3.78801 60.133 3.53801C60.427 3.31101 60.787 3.19001 61.156 3.19401C61.259 3.19501 61.362 3.20101 61.464 3.21301C61.562 3.22301 61.66 3.24001 61.756 3.26301V4.99901C61.634 4.96501 61.509 4.94101 61.383 4.92701C61.239 4.90601 61.094 4.89501 60.949 4.89401C60.687 4.88901 60.429 4.95301 60.199 5.08001C59.982 5.20001 59.802 5.37901 59.678 5.59601C59.549 5.82701 59.483 6.08901 59.488 6.35501V10.331H57.577ZM64.314 10.463C63.908 10.472 63.506 10.392 63.134 10.228C62.802 10.081 62.519 9.83801 62.32 9.52901C62.111 9.18101 62.007 8.77701 62.022 8.36901C62.012 8.02801 62.084 7.69001 62.233 7.38401C62.368 7.12501 62.566 6.90501 62.807 6.74401C63.061 6.57601 63.34 6.45201 63.633 6.37801C63.953 6.29401 64.279 6.23601 64.608 6.20601C65.008 6.16301 65.331 6.12101 65.576 6.08301C65.763 6.06401 65.945 6.00601 66.11 5.91101C66.222 5.83601 66.287 5.70401 66.278 5.56701V5.54001C66.294 5.28601 66.196 5.03801 66.012 4.86701C65.798 4.69601 65.53 4.61101 65.259 4.62901C64.968 4.61301 64.68 4.69401 64.438 4.86001C64.244 5.00101 64.101 5.20401 64.034 5.43801L62.27 5.29201C62.351 4.88201 62.532 4.50001 62.797 4.18201C63.074 3.85901 63.425 3.61101 63.818 3.45901C64.281 3.28201 64.773 3.19601 65.267 3.20601C65.638 3.20401 66.008 3.25001 66.368 3.34201C66.702 3.42601 67.019 3.57101 67.304 3.76901C67.575 3.95801 67.797 4.21101 67.952 4.50701C68.117 4.84001 68.198 5.21101 68.187 5.58401V10.331H66.383V9.35701H66.329C66.217 9.57801 66.063 9.77401 65.877 9.93501C65.68 10.108 65.451 10.241 65.203 10.324C64.916 10.42 64.616 10.467 64.314 10.463ZM64.866 9.11901C65.124 9.12401 65.379 9.06501 65.609 8.94701C65.816 8.84101 65.99 8.68101 66.115 8.48201C66.236 8.28501 66.299 8.05601 66.295 7.82301V7.07301C66.219 7.12001 66.137 7.15601 66.051 7.18101C65.946 7.21201 65.832 7.24201 65.704 7.26701C65.576 7.29301 65.446 7.31601 65.318 7.33601L64.967 7.39001C64.766 7.41701 64.569 7.47001 64.381 7.55001C64.228 7.61101 64.094 7.71201 63.992 7.84401C63.896 7.97701 63.847 8.13901 63.852 8.30301C63.839 8.54201 63.946 8.77201 64.137 8.91101C64.352 9.05801 64.608 9.13001 64.866 9.11901ZM69.485 10.331V3.30201H71.303V4.54101H71.384C71.515 4.14701 71.766 3.80501 72.102 3.56701C72.836 3.09101 73.773 3.09101 74.508 3.56701C74.835 3.80101 75.07 4.14501 75.172 4.54001H75.242C75.382 4.13801 75.651 3.79701 76.006 3.57201C76.398 3.32301 76.854 3.19701 77.317 3.20901C77.901 3.18601 78.468 3.41201 78.884 3.83201C79.285 4.25001 79.485 4.84001 79.485 5.60201V10.331H77.581V5.98901C77.606 5.66501 77.495 5.34501 77.276 5.10901C77.07 4.91301 76.796 4.80801 76.515 4.81701C76.209 4.79901 75.912 4.92201 75.704 5.15201C75.501 5.40001 75.397 5.71601 75.413 6.03901V10.331H73.559V5.94701C73.575 5.64401 73.471 5.34701 73.271 5.12301C73.071 4.91601 72.795 4.80501 72.511 4.81701C72.31 4.81301 72.112 4.87001 71.942 4.97901C71.769 5.09001 71.63 5.24701 71.539 5.43301C71.435 5.64701 71.384 5.88301 71.391 6.12101V10.331H69.485ZM83.939 10.469C83.302 10.487 82.673 10.334 82.112 10.026C81.606 9.73701 81.195 9.30101 80.933 8.77301C80.646 8.17501 80.505 7.51501 80.521 6.84901C80.507 6.19001 80.648 5.53601 80.933 4.94401C81.193 4.41401 81.597 3.97101 82.095 3.66701C82.631 3.35301 83.242 3.19601 83.859 3.21101C84.292 3.20801 84.722 3.28201 85.13 3.43101C85.516 3.57601 85.868 3.80301 86.161 4.09701C86.467 4.41301 86.701 4.79401 86.847 5.21301C87.021 5.71601 87.105 6.24701 87.095 6.78001V7.31601H81.286V6.10201H85.302C85.306 5.84201 85.244 5.58401 85.121 5.35501C85.006 5.14001 84.834 4.96201 84.626 4.83901C84.402 4.71201 84.149 4.64701 83.893 4.65301C83.624 4.64801 83.359 4.71901 83.126 4.85801C82.908 4.98801 82.727 5.17601 82.604 5.40201C82.477 5.63301 82.41 5.89401 82.41 6.15901V7.30901C82.403 7.62001 82.468 7.92901 82.601 8.20901C82.72 8.45501 82.909 8.65901 83.142 8.79601C83.395 8.93801 83.681 9.00901 83.971 9.00001C84.168 9.00301 84.365 8.97301 84.552 8.90901C84.721 8.85301 84.876 8.76001 85.005 8.63601C85.133 8.51001 85.23 8.35601 85.292 8.18601L87.058 8.30501C86.974 8.72501 86.785 9.11601 86.508 9.43801C86.216 9.77201 85.851 10.029 85.442 10.19C84.963 10.38 84.452 10.474 83.939 10.469ZM88.154 10.331V3.30201H90.008V4.52801H90.08C90.177 4.13601 90.399 3.78701 90.711 3.53801C91.005 3.31101 91.365 3.19001 91.733 3.19401C91.836 3.19501 91.939 3.20101 92.042 3.21301C92.14 3.22301 92.237 3.24001 92.333 3.26301V4.99901C92.211 4.96501 92.087 4.94101 91.961 4.92701C91.817 4.90601 91.673 4.89501 91.528 4.89401C91.266 4.88901 91.007 4.95301 90.776 5.08001C90.56 5.20101 90.38 5.37901 90.256 5.59601C90.126 5.82701 90.06 6.08901 90.065 6.35501V10.331H88.154Z" fill="#231F20"/>
</g>
<defs>
<clipPath id="clip0_1_1547">
<rect width="92" height="11" fill="white" transform="translate(0.5)"/>
</clipPath>
</defs>
</svg>
