<svg width="24" height="25" viewBox="0 0 24 25" fill="none" xmlns="http://www.w3.org/2000/svg">
<g clip-path="url(#clip0_1_1480)">
<path d="M21.9081 22.2798L21.9131 22.2788V14.9438C21.9131 11.3558 21.1401 8.59179 16.9451 8.59179C14.9291 8.59179 13.5751 9.69779 13.0231 10.7468H12.9641V8.92679H8.98709V22.2788H13.1291V15.6668C13.1291 13.9268 13.4591 12.2428 15.6141 12.2428C17.7391 12.2428 17.7701 14.2298 17.7701 15.7788V22.2798H21.9081ZM2.24309 8.92778H6.38909V22.2798H2.24309V8.92778ZM4.31409 2.27979C2.98909 2.27979 1.91309 3.35579 1.91309 4.68179C1.91309 6.00779 2.98909 7.10579 4.31409 7.10579C5.64009 7.10579 6.71609 6.00779 6.71609 4.68179C6.71509 3.35579 5.64009 2.28079 4.31409 2.27979Z" fill="black"/>
</g>
<defs>
<clipPath id="clip0_1_1480">
<rect width="24" height="24" fill="white" transform="translate(0 0.279785)"/>
</clipPath>
</defs>
</svg>
