<svg width="25" height="25" viewBox="0 0 25 25" fill="none" xmlns="http://www.w3.org/2000/svg">
<path fill-rule="evenodd" clip-rule="evenodd" d="M12.4199 21.69C14.966 21.69 17.4078 20.6786 19.2082 18.8782C21.0085 17.0779 22.0199 14.6361 22.0199 12.09C22.0199 9.54391 21.0085 7.10211 19.2082 5.30177C17.4078 3.50142 14.966 2.48999 12.4199 2.48999C9.87387 2.48999 7.43207 3.50142 5.63172 5.30177C3.83137 7.10211 2.81995 9.54391 2.81995 12.09C2.81995 14.6361 3.83137 17.0779 5.63172 18.8782C7.43207 20.6786 9.87387 21.69 12.4199 21.69ZM11.8859 8.69159C11.7052 8.57102 11.4952 8.50176 11.2782 8.49122C11.0612 8.48068 10.8454 8.52925 10.6538 8.63174C10.4623 8.73423 10.3021 8.88681 10.1905 9.07318C10.0789 9.25955 10.0199 9.47274 10.0199 9.68999V14.49C10.0199 14.7072 10.0789 14.9204 10.1905 15.1068C10.3021 15.2932 10.4623 15.4457 10.6538 15.5482C10.8454 15.6507 11.0612 15.6993 11.2782 15.6888C11.4952 15.6782 11.7052 15.609 11.8859 15.4884L15.4859 13.0884C15.6503 12.9788 15.7851 12.8303 15.8783 12.6562C15.9715 12.482 16.0202 12.2875 16.0202 12.09C16.0202 11.8925 15.9715 11.698 15.8783 11.5238C15.7851 11.3496 15.6503 11.2012 15.4859 11.0916L11.8859 8.69159Z" fill="#1C1C1C"/>
</svg>
