<svg width="24" height="25" viewBox="0 0 24 25" fill="none" xmlns="http://www.w3.org/2000/svg">
<g clip-path="url(#clip0_1_1472)">
<g clip-path="url(#clip1_1_1472)">
<path d="M19.3651 21.7197H4.79508C3.57208 21.7197 2.58008 20.7277 2.58008 19.5047V4.93473C2.58008 3.71173 3.57208 2.71973 4.79508 2.71973H19.3651C20.5881 2.71973 21.5801 3.71173 21.5801 4.93473V19.5047C21.5801 20.7277 20.5881 21.7197 19.3651 21.7197Z" fill="#1C1C1C"/>
<path d="M5.39799 6.37695L10.504 13.205L5.36499 18.756H6.52199L11.021 13.896L14.656 18.756H18.592L13.198 11.544L17.981 6.37695H16.825L12.681 10.853L9.33299 6.37695H5.39799ZM7.09799 7.22895H8.90699L16.891 17.904H15.083L7.09799 7.22895Z" fill="white"/>
</g>
</g>
<defs>
<clipPath id="clip0_1_1472">
<rect width="24" height="24" fill="white" transform="translate(0 0.279785)"/>
</clipPath>
<clipPath id="clip1_1_1472">
<rect width="24" height="24" fill="white" transform="translate(0 0.279785)"/>
</clipPath>
</defs>
</svg>
