<svg width="36" height="36" viewBox="0 0 36 36" fill="none" xmlns="http://www.w3.org/2000/svg">
<path fill-rule="evenodd" clip-rule="evenodd" d="M12.415 3.52002C11.4868 3.52002 10.5965 3.88877 9.94017 4.54515C9.28379 5.20152 8.91504 6.09176 8.91504 7.02002V28.02C8.91504 28.9483 9.28379 29.8385 9.94017 30.4949C10.5965 31.1513 11.4868 31.52 12.415 31.52H22.915C23.8433 31.52 24.7335 31.1513 25.3899 30.4949C26.0463 29.8385 26.415 28.9483 26.415 28.02V7.02002C26.415 6.09176 26.0463 5.20152 25.3899 4.54515C24.7335 3.88877 23.8433 3.52002 22.915 3.52002H12.415ZM17.665 28.02C18.1292 28.02 18.5743 27.8356 18.9025 27.5075C19.2307 27.1793 19.415 26.7341 19.415 26.27C19.415 25.8059 19.2307 25.3608 18.9025 25.0326C18.5743 24.7044 18.1292 24.52 17.665 24.52C17.2009 24.52 16.7558 24.7044 16.4276 25.0326C16.0994 25.3608 15.915 25.8059 15.915 26.27C15.915 26.7341 16.0994 27.1793 16.4276 27.5075C16.7558 27.8356 17.2009 28.02 17.665 28.02Z" fill="#FDF2EC"/>
</svg>
