<svg width="364" height="109" viewBox="0 0 364 109" fill="none" xmlns="http://www.w3.org/2000/svg">
<g clip-path="url(#clip0_1_1416)">
<path d="M64.056 41.504C64.056 35.209 69.208 30.106 75.563 30.106H288.437C294.792 30.106 299.944 35.209 299.944 41.504V68.621C299.944 74.916 294.792 80.019 288.437 80.019H188.357L182 86.144L175.553 80.019H75.563C69.208 80.019 64.056 74.916 64.056 68.621V41.504Z" fill="black" stroke="black" stroke-width="1.48" stroke-miterlimit="10"/>
<path d="M64.056 41.504C64.056 35.209 69.208 30.106 75.563 30.106H288.437C294.792 30.106 299.944 35.209 299.944 41.504V68.621C299.944 74.916 294.792 80.019 288.437 80.019H188.357L182 86.144L175.553 80.019H75.563C69.208 80.019 64.056 74.916 64.056 68.621V41.504Z" fill="white" stroke="#EDEDFA" stroke-width="1.48" stroke-miterlimit="10"/>
</g>
<defs>
<clipPath id="clip0_1_1416">
<rect width="364" height="108" fill="white" transform="translate(0 0.484863)"/>
</clipPath>
</defs>
</svg>
