<svg width="24" height="25" viewBox="0 0 24 25" fill="none" xmlns="http://www.w3.org/2000/svg">
<g clip-path="url(#clip0_1_1461)">
<g clip-path="url(#clip1_1_1461)">
<path d="M9 12.2798C9 10.6228 10.343 9.27979 12 9.27979C13.657 9.27979 15 10.6228 15 12.2798C15 13.9368 13.657 15.2798 12 15.2798C10.343 15.2798 9 13.9368 9 12.2798Z" fill="#1C1C1C"/>
<path d="M16.125 2.90479H7.875C4.976 2.90479 2.625 5.25579 2.625 8.15479V16.4048C2.625 19.3038 4.976 21.6548 7.875 21.6548H16.125C19.024 21.6548 21.375 19.3038 21.375 16.4048V8.15479C21.375 5.25579 19.024 2.90479 16.125 2.90479ZM12 16.7798C9.515 16.7798 7.5 14.7648 7.5 12.2798C7.5 9.79479 9.515 7.77979 12 7.77979C14.485 7.77979 16.5 9.79479 16.5 12.2798C16.5 14.7648 14.485 16.7798 12 16.7798ZM16.875 8.52979C16.254 8.52979 15.75 8.02578 15.75 7.40479C15.75 6.78379 16.254 6.27979 16.875 6.27979C17.496 6.27979 18 6.78379 18 7.40479C18 8.02578 17.496 8.52979 16.875 8.52979Z" fill="#1C1C1C"/>
</g>
</g>
<defs>
<clipPath id="clip0_1_1461">
<rect width="24" height="24" fill="white" transform="translate(0 0.279785)"/>
</clipPath>
<clipPath id="clip1_1_1461">
<rect width="24" height="24" fill="white" transform="translate(0 0.279785)"/>
</clipPath>
</defs>
</svg>
