<svg width="36" height="36" viewBox="0 0 36 36" fill="none" xmlns="http://www.w3.org/2000/svg">
<path d="M17.995 3.52002C15.2102 3.52002 12.5395 4.62627 10.5704 6.5954C8.60124 8.56453 7.49499 11.2352 7.49499 14.02V20.2955L6.25774 21.5328C6.01307 21.7775 5.84646 22.0893 5.77897 22.4287C5.71147 22.7681 5.74613 23.1199 5.87855 23.4397C6.01097 23.7594 6.23522 24.0327 6.52294 24.225C6.81065 24.4173 7.14893 24.5199 7.49499 24.52H28.495C28.8411 24.5199 29.1793 24.4173 29.467 24.225C29.7548 24.0327 29.979 23.7594 30.1114 23.4397C30.2438 23.1199 30.2785 22.7681 30.211 22.4287C30.1435 22.0893 29.9769 21.7775 29.7322 21.5328L28.495 20.2955V14.02C28.495 11.2352 27.3887 8.56453 25.4196 6.5954C23.4505 4.62627 20.7798 3.52002 17.995 3.52002ZM17.995 31.52C16.6026 31.52 15.2672 30.9669 14.2827 29.9823C13.2981 28.9978 12.745 27.6624 12.745 26.27H23.245C23.245 27.6624 22.6919 28.9978 21.7073 29.9823C20.7227 30.9669 19.3874 31.52 17.995 31.52Z" fill="#FDF2EC"/>
</svg>
