<svg width="36" height="36" viewBox="0 0 36 36" fill="none" xmlns="http://www.w3.org/2000/svg">
<path fill-rule="evenodd" clip-rule="evenodd" d="M22.5111 4.48789C22.4002 4.2657 22.2432 4.06966 22.0507 3.91281C21.8582 3.75595 21.6345 3.64187 21.3944 3.57814C21.1544 3.51441 20.9036 3.50249 20.6586 3.54318C20.4136 3.58387 20.1801 3.67624 19.9736 3.81414C19.3698 4.21664 18.8991 4.79064 18.5351 5.35414C18.1606 5.93164 17.8298 6.60189 17.5376 7.30714C16.9531 8.71414 16.4631 10.4011 16.0676 12.0916C15.5893 14.1575 15.2311 16.2493 14.9948 18.3566C14.2828 17.8976 13.7107 17.2517 13.3411 16.4894C12.7671 15.2994 12.6446 13.8049 12.6446 11.8449C12.6445 11.4988 12.5418 11.1606 12.3495 10.8728C12.1572 10.5851 11.884 10.3609 11.5642 10.2284C11.2445 10.096 10.8927 10.0614 10.5533 10.1289C10.2139 10.1964 9.90207 10.363 9.65733 10.6076C8.51837 11.7442 7.61513 13.0945 6.99948 14.581C6.38383 16.0676 6.0679 17.6611 6.06983 19.2701C6.06998 21.2846 6.56691 23.2679 7.51663 25.0445C8.46634 26.821 9.83951 28.3359 11.5145 29.455C13.1895 30.5741 15.1147 31.2629 17.1194 31.4603C19.1242 31.6577 21.1467 31.3576 23.0078 30.5867C24.8689 29.8158 26.5112 28.5978 27.7892 27.0406C29.0671 25.4834 29.9414 23.6351 30.3344 21.6594C30.7274 19.6836 30.6272 17.6414 30.0425 15.7137C29.4578 13.7859 28.4067 12.0321 26.9823 10.6076C25.9463 9.57339 25.2673 8.88389 24.6233 8.04039C23.9881 7.20739 23.3563 6.18014 22.5111 4.48789ZM22.0298 26.4801C21.2956 27.2134 20.3606 27.7127 19.3428 27.9149C18.325 28.1171 17.2701 28.0131 16.3114 27.6161C15.3526 27.2192 14.533 26.547 13.9561 25.6845C13.3791 24.822 13.0707 23.8078 13.0698 22.7701C13.0698 22.7701 14.6081 23.6451 17.4448 23.6451C17.4448 21.8951 18.3198 16.6451 19.6323 15.7701C20.5073 17.5201 21.0078 18.0329 22.0316 19.0584C22.5199 19.5452 22.9072 20.1237 23.1712 20.7607C23.4352 21.3977 23.5706 22.0806 23.5698 22.7701C23.5706 23.4597 23.4352 24.1425 23.1712 24.7795C22.9072 25.4165 22.5199 25.9951 22.0316 26.4819L22.0298 26.4801Z" fill="#FDF2EC"/>
</svg>
