<svg width="24" height="25" viewBox="0 0 24 25" fill="none" xmlns="http://www.w3.org/2000/svg">
<path fill-rule="evenodd" clip-rule="evenodd" d="M20.0484 6.83181C20.2734 7.05685 20.3997 7.36202 20.3997 7.68021C20.3997 7.99841 20.2734 8.30358 20.0484 8.52861L10.4484 18.1286C10.2234 18.3536 9.9182 18.48 9.6 18.48C9.2818 18.48 8.97663 18.3536 8.7516 18.1286L3.9516 13.3286C3.73301 13.1023 3.61206 12.7992 3.61479 12.4845C3.61753 12.1699 3.74373 11.8689 3.96622 11.6464C4.18871 11.4239 4.48968 11.2977 4.80432 11.295C5.11895 11.2923 5.42208 11.4132 5.6484 11.6318L9.6 15.5834L18.3516 6.83181C18.5766 6.60685 18.8818 6.48047 19.2 6.48047C19.5182 6.48047 19.8234 6.60685 20.0484 6.83181Z" fill="#43D67E"/>
</svg>
