<svg width="25" height="25" viewBox="0 0 25 25" fill="none" xmlns="http://www.w3.org/2000/svg">
<path fill-rule="evenodd" clip-rule="evenodd" d="M20.715 6.44168C20.94 6.66671 21.0664 6.97188 21.0664 7.29008C21.0664 7.60827 20.94 7.91344 20.715 8.13848L11.115 17.7385C10.89 17.9634 10.5848 18.0898 10.2666 18.0898C9.94843 18.0898 9.64326 17.9634 9.41823 17.7385L4.61823 12.9385C4.39964 12.7122 4.27868 12.409 4.28142 12.0944C4.28415 11.7798 4.41035 11.4788 4.63284 11.2563C4.85533 11.0338 5.15631 10.9076 5.47094 10.9049C5.78558 10.9021 6.0887 11.0231 6.31503 11.2417L10.2666 15.1933L19.0182 6.44168C19.2433 6.21671 19.5484 6.09033 19.8666 6.09033C20.1848 6.09033 20.49 6.21671 20.715 6.44168Z" fill="#43D67E"/>
</svg>
