<svg width="25" height="25" viewBox="0 0 25 25" fill="none" xmlns="http://www.w3.org/2000/svg">
<path fill-rule="evenodd" clip-rule="evenodd" d="M20.3818 6.83181C20.6067 7.05685 20.7331 7.36202 20.7331 7.68021C20.7331 7.99841 20.6067 8.30358 20.3818 8.52861L10.7818 18.1286C10.5567 18.3536 10.2516 18.48 9.93337 18.48C9.61518 18.48 9.31001 18.3536 9.08497 18.1286L4.28497 13.3286C4.06638 13.1023 3.94543 12.7992 3.94817 12.4845C3.9509 12.1699 4.0771 11.8689 4.29959 11.6464C4.52208 11.4239 4.82306 11.2977 5.13769 11.295C5.45233 11.2923 5.75545 11.4132 5.98177 11.6318L9.93337 15.5834L18.685 6.83181C18.91 6.60685 19.2152 6.48047 19.5334 6.48047C19.8516 6.48047 20.1567 6.60685 20.3818 6.83181Z" fill="#43D67E"/>
</svg>
